<?xml version="1.0" standalone="no"?>
<!DOCTYPE svg PUBLIC "-//W3C//DTD SVG 20010904//EN"
 "http://www.w3.org/TR/2001/REC-SVG-20010904/DTD/svg10.dtd">
<svg version="1.0" xmlns="http://www.w3.org/2000/svg"
 width="379.000000pt" height="379.000000pt" viewBox="0 0 379.000000 379.000000"
 preserveAspectRatio="xMidYMid meet">
<metadata>
Created by potrace 1.14, written by Peter Selinger 2001-2017
</metadata>
<g transform="translate(0.000000,379.000000) scale(0.100000,-0.100000)"
fill="#000000" stroke="none">
<path d="M1125 3783 c-159 -34 -295 -79 -375 -125 -8 -4 -22 -11 -30 -15 -18
-7 -146 -91 -174 -113 -66 -52 -191 -182 -240 -249 -104 -145 -197 -355 -221
-496 -3 -22 -10 -62 -15 -90 -9 -53 -6 -347 3 -362 4 -6 9 -25 12 -44 19 -109
102 -338 126 -347 5 -2 9 -10 9 -17 0 -31 135 -211 220 -294 30 -29 84 -75
120 -102 36 -27 70 -52 75 -57 25 -20 216 -112 274 -131 201 -69 359 -80 651
-47 56 7 184 48 266 86 48 22 89 39 91 37 1 -2 3 -321 3 -710 l1 -706 899 0
900 -1 0 900 c0 850 -1 900 -17 901 -10 0 -318 1 -685 1 -368 1 -668 5 -668 9
0 5 4 9 9 9 5 0 11 8 14 18 4 9 17 35 31 57 39 63 76 143 107 233 27 79 34
105 44 162 2 14 7 36 11 50 3 14 7 88 9 165 6 256 -51 469 -183 690 -42 69
-36 61 -106 146 -171 206 -401 350 -672 419 -75 20 -118 24 -279 25 -104 1
-199 0 -210 -2z"/>
</g>
</svg>
